<?xml version="1.0" standalone="no"?>
<!DOCTYPE svg PUBLIC "-//W3C//DTD SVG 20010904//EN"
 "http://www.w3.org/TR/2001/REC-SVG-20010904/DTD/svg10.dtd">
<svg version="1.0" xmlns="http://www.w3.org/2000/svg"
 width="220.000000pt" height="220.000000pt" viewBox="0 0 220.000000 220.000000"
 preserveAspectRatio="xMidYMid meet">
<metadata>
Created by potrace 1.14, written by Peter Selinger 2001-2017
</metadata>
<g transform="translate(0.000000,220.000000) scale(0.100000,-0.100000)"
fill="#000000" stroke="none">
<path d="M0 1100 l0 -1100 1100 0 1100 0 0 1100 0 1100 -1100 0 -1100 0 0
-1100z m1772 477 l66 -2 -220 -352 c-121 -194 -224 -350 -229 -348 -13 9 -481
677 -486 694 -4 14 35 16 399 13 222 -1 433 -3 470 -5z m-687 -590 l241 -342
-455 -3 c-250 -1 -456 0 -458 2 -6 6 417 686 426 686 3 0 114 -154 246 -343z"/>
</g>
</svg>
